%TF.GenerationSoftware,KiCad,Pcbnew,5.1.6*%
%TF.CreationDate,2020-07-25T00:00:04-05:00*%
%TF.ProjectId,pulsemixer_pcb,70756c73-656d-4697-9865-725f7063622e,rev?*%
%TF.SameCoordinates,Original*%
%TF.FileFunction,Paste,Bot*%
%TF.FilePolarity,Positive*%
%FSLAX46Y46*%
G04 Gerber Fmt 4.6, Leading zero omitted, Abs format (unit mm)*
G04 Created by KiCad (PCBNEW 5.1.6) date 2020-07-25 00:00:04*
%MOMM*%
%LPD*%
G01*
G04 APERTURE LIST*
%ADD10R,1.250000X1.500000*%
%ADD11R,1.500000X1.250000*%
%ADD12R,0.900000X0.800000*%
%ADD13R,0.900000X1.700000*%
G04 APERTURE END LIST*
D10*
%TO.C,C201*%
X100806000Y-124522000D03*
X100806000Y-122022000D03*
%TD*%
%TO.C,C202*%
X89538000Y-121712000D03*
X89538000Y-119212000D03*
%TD*%
D11*
%TO.C,C204*%
X97106000Y-81472000D03*
X99606000Y-81472000D03*
%TD*%
%TO.C,C203*%
X92106000Y-67472000D03*
X94606000Y-67472000D03*
%TD*%
D10*
%TO.C,C103*%
X161420000Y-43734000D03*
X161420000Y-41234000D03*
%TD*%
%TO.C,C102*%
X148720000Y-43480000D03*
X148720000Y-40980000D03*
%TD*%
%TO.C,C401*%
X183478000Y-124522000D03*
X183478000Y-122022000D03*
%TD*%
%TO.C,C402*%
X172210000Y-121712000D03*
X172210000Y-119212000D03*
%TD*%
D11*
%TO.C,C403*%
X174778000Y-67472000D03*
X177278000Y-67472000D03*
%TD*%
%TO.C,C404*%
X179778000Y-81472000D03*
X182278000Y-81472000D03*
%TD*%
D10*
%TO.C,C501*%
X224814000Y-124522000D03*
X224814000Y-122022000D03*
%TD*%
%TO.C,C502*%
X213546000Y-121712000D03*
X213546000Y-119212000D03*
%TD*%
D11*
%TO.C,C503*%
X216114000Y-67472000D03*
X218614000Y-67472000D03*
%TD*%
%TO.C,C504*%
X221114000Y-81472000D03*
X223614000Y-81472000D03*
%TD*%
D10*
%TO.C,C301*%
X142142000Y-124522000D03*
X142142000Y-122022000D03*
%TD*%
%TO.C,C302*%
X130874000Y-119212000D03*
X130874000Y-121712000D03*
%TD*%
D11*
%TO.C,C303*%
X133442000Y-67472000D03*
X135942000Y-67472000D03*
%TD*%
%TO.C,C304*%
X140942000Y-81472000D03*
X138442000Y-81472000D03*
%TD*%
%TO.C,C107*%
X128290000Y-41148000D03*
X130790000Y-41148000D03*
%TD*%
D12*
%TO.C,Q201*%
X105679949Y-83850184D03*
X105679949Y-81950184D03*
X107679949Y-82900184D03*
%TD*%
%TO.C,Q301*%
X147015949Y-83850184D03*
X147015949Y-81950184D03*
X149015949Y-82900184D03*
%TD*%
%TO.C,Q401*%
X190351949Y-82900184D03*
X188351949Y-81950184D03*
X188351949Y-83850184D03*
%TD*%
%TO.C,Q501*%
X231687949Y-82900184D03*
X229687949Y-81950184D03*
X229687949Y-83850184D03*
%TD*%
D13*
%TO.C,R208*%
X100756000Y-90520184D03*
X97856000Y-90520184D03*
%TD*%
%TO.C,R308*%
X139192000Y-90520184D03*
X142092000Y-90520184D03*
%TD*%
%TO.C,R408*%
X183428000Y-90520184D03*
X180528000Y-90520184D03*
%TD*%
%TO.C,R508*%
X221864000Y-90520184D03*
X224764000Y-90520184D03*
%TD*%
M02*
