M48
; DRILL file {KiCad 5.1.6} date Thu Jul 30 12:55:30 2020
; FORMAT={-:-/ absolute / metric / decimal}
; #@! TF.CreationDate,2020-07-30T12:55:30-05:00
; #@! TF.GenerationSoftware,Kicad,Pcbnew,5.1.6
; #@! TF.FileFunction,Plated,1,2,PTH
FMAT,2
METRIC
T1C0.400
T2C0.760
T3C0.800
T4C0.900
T5C1.000
T6C1.100
T7C2.000
%
G90
G05
T1
X69.246Y-51.231
X70.996Y-57.978
X71.504Y-66.868
X71.728Y-58.77
X72.266Y-66.106
X73.196Y-73.972
X74.298Y-78.298
X75.696Y-73.972
X76.838Y-82.108
X82.696Y-117.972
X86.696Y-113.972
X87.696Y-117.972
X89.19Y-66.247
X90.3Y-110.81
X90.696Y-114.972
X91.196Y-73.472
X92.183Y-72.459
X93.824Y-118.047
X94.11Y-57.216
X94.872Y-82.616
X95.25Y-87.472
X95.806Y-122.772
X96.65Y-57.216
X97.666Y-114.874
X100.721Y-74.472
X101.696Y-76.472
X112.398Y-57.978
X112.84Y-66.868
X112.84Y-66.868
X113.19Y-58.77
X113.602Y-66.106
X113.602Y-66.106
X114.532Y-73.972
X114.532Y-73.972
X115.634Y-78.298
X115.634Y-78.298
X117.032Y-73.972
X117.032Y-73.972
X118.174Y-82.108
X118.174Y-82.108
X120.904Y-39.37
X120.904Y-43.688
X122.174Y-44.958
X124.032Y-117.972
X124.032Y-117.972
X125.984Y-41.402
X128.032Y-113.972
X128.032Y-113.972
X129.032Y-117.972
X129.032Y-117.972
X129.761Y-47.564
X130.526Y-66.247
X130.526Y-66.247
X131.636Y-110.81
X131.636Y-110.81
X132.032Y-114.972
X132.032Y-114.972
X132.532Y-73.472
X132.532Y-73.472
X133.519Y-72.459
X133.519Y-72.459
X135.16Y-118.047
X135.16Y-118.047
X135.766Y-57.216
X136.208Y-82.616
X136.208Y-82.616
X136.528Y-49.088
X136.586Y-87.472
X136.586Y-87.472
X137.142Y-122.772
X137.142Y-122.772
X137.798Y-51.374
X137.798Y-57.216
X138.052Y-42.992
X139.002Y-114.874
X139.002Y-114.874
X140.338Y-42.23
X141.862Y-52.39
X142.057Y-74.472
X142.057Y-74.472
X143.032Y-76.472
X143.032Y-76.472
X144.91Y-42.795
X146.942Y-44.77
X146.942Y-46.294
X147.958Y-52.39
X148.72Y-50.358
X148.72Y-55.692
X149.007Y-48.547
X149.482Y-56.454
X149.736Y-50.866
X150.244Y-57.216
X150.752Y-51.436
X152.276Y-53.914
X153.546Y-57.978
X154.054Y-47.31
X154.176Y-66.868
X154.176Y-66.868
X154.532Y-58.77
X154.938Y-66.106
X154.938Y-66.106
X155.324Y-52.39
X155.868Y-73.972
X155.868Y-73.972
X156.97Y-78.298
X156.97Y-78.298
X158.368Y-73.972
X158.368Y-73.972
X159.51Y-82.108
X159.51Y-82.108
X159.642Y-44.77
X160.733Y-45.931
X161.674Y-54.422
X165.368Y-117.972
X165.368Y-117.972
X166.033Y-47.031
X169.368Y-113.972
X169.368Y-113.972
X170.368Y-117.972
X170.368Y-117.972
X170.633Y-41.231
X171.862Y-66.247
X171.862Y-66.247
X171.87Y-44.668
X172.633Y-46.431
X172.972Y-110.81
X172.972Y-110.81
X173.368Y-114.972
X173.368Y-114.972
X173.868Y-73.472
X173.868Y-73.472
X174.374Y-56.962
X174.855Y-72.459
X174.855Y-72.459
X176.496Y-118.047
X176.496Y-118.047
X176.66Y-54.422
X177.422Y-56.962
X177.544Y-82.616
X177.544Y-82.616
X177.922Y-87.472
X177.922Y-87.472
X178.478Y-122.772
X178.478Y-122.772
X180.033Y-48.531
X180.333Y-41.731
X180.338Y-114.874
X180.338Y-114.874
X183.393Y-74.472
X183.393Y-74.472
X184.368Y-76.472
X184.368Y-76.472
X192.533Y-46.431
X192.916Y-57.978
X194.694Y-55.692
X194.694Y-56.708
X194.704Y-58.77
X195.512Y-66.868
X195.512Y-66.868
X195.733Y-49.331
X196.274Y-66.106
X196.274Y-66.106
X197.204Y-73.972
X197.204Y-73.972
X197.234Y-55.692
X197.234Y-56.708
X198.306Y-78.298
X198.306Y-78.298
X199.012Y-49.088
X199.704Y-49.92
X199.704Y-73.972
X199.704Y-73.972
X200.846Y-82.108
X200.846Y-82.108
X206.704Y-117.972
X206.704Y-117.972
X206.927Y-42.706
X207.834Y-43.178
X210.704Y-113.972
X210.704Y-113.972
X211.704Y-117.972
X211.704Y-117.972
X213.198Y-66.247
X213.198Y-66.247
X214.308Y-110.81
X214.308Y-110.81
X214.704Y-114.972
X214.704Y-114.972
X215.204Y-73.472
X215.204Y-73.472
X215.268Y-58.74
X216.191Y-72.459
X216.191Y-72.459
X217.832Y-118.047
X217.832Y-118.047
X218.88Y-82.616
X218.88Y-82.616
X219.258Y-87.472
X219.258Y-87.472
X219.814Y-122.772
X219.814Y-122.772
X220.602Y-58.74
X221.674Y-114.874
X221.674Y-114.874
X224.729Y-74.472
X224.729Y-74.472
X225.704Y-76.472
X225.704Y-76.472
T2
X66.5Y-41.976
X66.5Y-44.516
X66.5Y-47.056
T3
X196.364Y-62.852
X196.364Y-70.472
X198.904Y-62.852
X198.904Y-70.472
X201.444Y-62.852
X201.444Y-70.472
X203.984Y-62.852
X203.984Y-70.472
X206.524Y-62.852
X206.524Y-70.472
X209.064Y-62.852
X209.064Y-70.472
X211.604Y-62.852
X211.604Y-70.472
X214.144Y-62.852
X214.144Y-70.472
X216.684Y-62.852
X216.684Y-70.472
X219.224Y-62.852
X219.224Y-70.472
X221.764Y-62.852
X221.764Y-70.472
X224.304Y-62.852
X224.304Y-70.472
X226.844Y-62.852
X226.844Y-70.472
X229.384Y-62.852
X229.384Y-70.472
X72.356Y-62.852
X72.356Y-70.472
X74.896Y-62.852
X74.896Y-70.472
X77.436Y-62.852
X77.436Y-70.472
X79.976Y-62.852
X79.976Y-70.472
X82.516Y-62.852
X82.516Y-70.472
X85.056Y-62.852
X85.056Y-70.472
X87.596Y-62.852
X87.596Y-70.472
X90.136Y-62.852
X90.136Y-70.472
X92.676Y-62.852
X92.676Y-70.472
X95.216Y-62.852
X95.216Y-70.472
X97.756Y-62.852
X97.756Y-70.472
X100.296Y-62.852
X100.296Y-70.472
X102.836Y-62.852
X102.836Y-70.472
X105.376Y-62.852
X105.376Y-70.472
X73.97Y-41.402
X77.47Y-41.402
X155.028Y-62.852
X155.028Y-70.472
X157.568Y-62.852
X157.568Y-70.472
X160.108Y-62.852
X160.108Y-70.472
X162.648Y-62.852
X162.648Y-70.472
X165.188Y-62.852
X165.188Y-70.472
X167.728Y-62.852
X167.728Y-70.472
X170.268Y-62.852
X170.268Y-70.472
X172.808Y-62.852
X172.808Y-70.472
X175.348Y-62.852
X175.348Y-70.472
X177.888Y-62.852
X177.888Y-70.472
X180.428Y-62.852
X180.428Y-70.472
X182.968Y-62.852
X182.968Y-70.472
X185.508Y-62.852
X185.508Y-70.472
X188.048Y-62.852
X188.048Y-70.472
X113.692Y-62.852
X113.692Y-70.472
X116.232Y-62.852
X116.232Y-70.472
X118.772Y-62.852
X118.772Y-70.472
X121.312Y-62.852
X121.312Y-70.472
X123.852Y-62.852
X123.852Y-70.472
X126.392Y-62.852
X126.392Y-70.472
X128.932Y-62.852
X128.932Y-70.472
X131.472Y-62.852
X131.472Y-70.472
X134.012Y-62.852
X134.012Y-70.472
X136.552Y-62.852
X136.552Y-70.472
X139.092Y-62.852
X139.092Y-70.472
X141.632Y-62.852
X141.632Y-70.472
X144.172Y-62.852
X144.172Y-70.472
X146.712Y-62.852
X146.712Y-70.472
T4
X198.504Y-37.912
X198.504Y-53.152
X201.044Y-37.912
X201.044Y-53.152
X203.584Y-37.912
X203.584Y-53.152
X206.124Y-37.912
X206.124Y-53.152
X208.664Y-37.912
X208.664Y-53.152
X211.204Y-37.912
X211.204Y-53.152
X213.744Y-37.912
X213.744Y-53.152
X216.284Y-37.912
X216.284Y-53.152
X218.824Y-37.912
X218.824Y-53.152
X221.364Y-37.912
X221.364Y-53.152
X223.904Y-37.912
X223.904Y-53.152
X226.444Y-37.912
X226.444Y-53.152
X228.984Y-37.912
X228.984Y-53.152
X231.524Y-37.912
X231.524Y-53.152
X234.064Y-37.912
X234.064Y-53.152
T5
X203.584Y-75.602
X203.584Y-78.142
X206.124Y-75.602
X206.124Y-78.142
X208.664Y-75.602
X208.664Y-78.142
X211.204Y-75.602
X211.204Y-78.142
X213.744Y-75.602
X213.744Y-78.142
X216.284Y-75.602
X216.284Y-78.142
X218.824Y-75.602
X218.824Y-78.142
X221.364Y-75.602
X221.364Y-78.142
X202.841Y-120.031
X202.841Y-134.531
X205.341Y-134.531
X207.841Y-120.031
X207.841Y-134.531
X79.576Y-75.602
X79.576Y-78.142
X82.116Y-75.602
X82.116Y-78.142
X84.656Y-75.602
X84.656Y-78.142
X87.196Y-75.602
X87.196Y-78.142
X89.736Y-75.602
X89.736Y-78.142
X92.276Y-75.602
X92.276Y-78.142
X94.816Y-75.602
X94.816Y-78.142
X97.356Y-75.602
X97.356Y-78.142
X120.912Y-75.602
X120.912Y-78.142
X123.452Y-75.602
X123.452Y-78.142
X125.992Y-75.602
X125.992Y-78.142
X128.532Y-75.602
X128.532Y-78.142
X131.072Y-75.602
X131.072Y-78.142
X133.612Y-75.602
X133.612Y-78.142
X136.152Y-75.602
X136.152Y-78.142
X138.692Y-75.602
X138.692Y-78.142
X161.505Y-120.031
X161.505Y-134.531
X164.005Y-134.531
X166.505Y-120.031
X166.505Y-134.531
X120.169Y-120.031
X120.169Y-134.531
X122.669Y-134.531
X125.169Y-120.031
X125.169Y-134.531
X78.833Y-120.031
X78.833Y-134.531
X81.333Y-134.531
X83.833Y-120.031
X83.833Y-134.531
X162.248Y-75.602
X162.248Y-78.142
X164.788Y-75.602
X164.788Y-78.142
X167.328Y-75.602
X167.328Y-78.142
X169.868Y-75.602
X169.868Y-78.142
X172.408Y-75.602
X172.408Y-78.142
X174.948Y-75.602
X174.948Y-78.142
X177.488Y-75.602
X177.488Y-78.142
X180.028Y-75.602
X180.028Y-78.142
T6
X180.028Y-128.972
X180.028Y-133.472
X186.528Y-128.972
X186.528Y-133.472
X221.364Y-128.972
X221.364Y-133.472
X227.864Y-128.972
X227.864Y-133.472
X84.458Y-48.072
X84.458Y-52.572
X90.958Y-48.072
X90.958Y-52.572
X97.356Y-128.972
X97.356Y-133.472
X103.856Y-128.972
X103.856Y-133.472
X116.97Y-48.072
X116.97Y-52.572
X123.47Y-48.072
X123.47Y-52.572
X138.692Y-128.972
X138.692Y-133.472
X145.192Y-128.972
X145.192Y-133.472
X98.174Y-48.072
X98.174Y-52.572
X104.674Y-48.072
X104.674Y-52.572
T7
X193.204Y-76.872
X193.204Y-107.372
X229.204Y-76.872
X229.204Y-107.372
X69.196Y-76.872
X69.196Y-107.372
X105.196Y-76.872
X105.196Y-107.372
X110.532Y-76.872
X110.532Y-107.372
X146.532Y-76.872
X146.532Y-107.372
X151.868Y-76.872
X151.868Y-107.372
X187.868Y-76.872
X187.868Y-107.372
T0
M30
