%TF.GenerationSoftware,KiCad,Pcbnew,5.1.6*%
%TF.CreationDate,2020-07-25T00:00:04-05:00*%
%TF.ProjectId,pulsemixer_pcb,70756c73-656d-4697-9865-725f7063622e,rev?*%
%TF.SameCoordinates,Original*%
%TF.FileFunction,Soldermask,Bot*%
%TF.FilePolarity,Negative*%
%FSLAX46Y46*%
G04 Gerber Fmt 4.6, Leading zero omitted, Abs format (unit mm)*
G04 Created by KiCad (PCBNEW 5.1.6) date 2020-07-25 00:00:04*
%MOMM*%
%LPD*%
G01*
G04 APERTURE LIST*
%ADD10C,2.100000*%
%ADD11C,4.100000*%
%ADD12C,1.598600*%
%ADD13O,1.400000X2.800000*%
%ADD14R,1.350000X1.600000*%
%ADD15R,1.600000X1.350000*%
%ADD16R,1.700000X1.700000*%
%ADD17O,1.700000X1.700000*%
%ADD18R,1.900000X1.900000*%
%ADD19C,1.900000*%
%ADD20C,1.260000*%
%ADD21R,1.260000X1.260000*%
%ADD22R,1.000000X0.900000*%
%ADD23C,1.700000*%
%ADD24R,1.000000X1.800000*%
G04 APERTURE END LIST*
D10*
%TO.C,DS201*%
X97356000Y-75602000D03*
X97356000Y-78142000D03*
X94816000Y-75602000D03*
X94816000Y-78142000D03*
X89736000Y-75602000D03*
X89736000Y-78142000D03*
X92276000Y-75602000D03*
X92276000Y-78142000D03*
X87196000Y-75602000D03*
X87196000Y-78142000D03*
X84656000Y-75602000D03*
X84656000Y-78142000D03*
X82116000Y-78142000D03*
X82116000Y-75602000D03*
X79576000Y-78142000D03*
X79576000Y-75602000D03*
D11*
X105196000Y-107372000D03*
X69196000Y-107372000D03*
X105196000Y-76872000D03*
X69196000Y-76872000D03*
%TD*%
D10*
%TO.C,DS401*%
X180028000Y-75602000D03*
X180028000Y-78142000D03*
X177488000Y-75602000D03*
X177488000Y-78142000D03*
X172408000Y-75602000D03*
X172408000Y-78142000D03*
X174948000Y-75602000D03*
X174948000Y-78142000D03*
X169868000Y-75602000D03*
X169868000Y-78142000D03*
X167328000Y-75602000D03*
X167328000Y-78142000D03*
X164788000Y-78142000D03*
X164788000Y-75602000D03*
X162248000Y-78142000D03*
X162248000Y-75602000D03*
D11*
X187868000Y-107372000D03*
X151868000Y-107372000D03*
X187868000Y-76872000D03*
X151868000Y-76872000D03*
%TD*%
D10*
%TO.C,DS501*%
X221364000Y-75602000D03*
X221364000Y-78142000D03*
X218824000Y-75602000D03*
X218824000Y-78142000D03*
X213744000Y-75602000D03*
X213744000Y-78142000D03*
X216284000Y-75602000D03*
X216284000Y-78142000D03*
X211204000Y-75602000D03*
X211204000Y-78142000D03*
X208664000Y-75602000D03*
X208664000Y-78142000D03*
X206124000Y-78142000D03*
X206124000Y-75602000D03*
X203584000Y-78142000D03*
X203584000Y-75602000D03*
D11*
X229204000Y-107372000D03*
X193204000Y-107372000D03*
X229204000Y-76872000D03*
X193204000Y-76872000D03*
%TD*%
D10*
%TO.C,DS301*%
X138692000Y-75602000D03*
X138692000Y-78142000D03*
X136152000Y-75602000D03*
X136152000Y-78142000D03*
X131072000Y-75602000D03*
X131072000Y-78142000D03*
X133612000Y-75602000D03*
X133612000Y-78142000D03*
X128532000Y-75602000D03*
X128532000Y-78142000D03*
X125992000Y-75602000D03*
X125992000Y-78142000D03*
X123452000Y-78142000D03*
X123452000Y-75602000D03*
X120912000Y-78142000D03*
X120912000Y-75602000D03*
D11*
X146532000Y-107372000D03*
X110532000Y-107372000D03*
X146532000Y-76872000D03*
X110532000Y-76872000D03*
%TD*%
D12*
%TO.C,SW201*%
X78833000Y-120031000D03*
X83833000Y-120031000D03*
X78833000Y-134531000D03*
X81333000Y-134531000D03*
X83833000Y-134531000D03*
D13*
X75383000Y-127031000D03*
X87283000Y-127031000D03*
%TD*%
D12*
%TO.C,SW301*%
X120169000Y-120031000D03*
X125169000Y-120031000D03*
X120169000Y-134531000D03*
X122669000Y-134531000D03*
X125169000Y-134531000D03*
D13*
X116719000Y-127031000D03*
X128619000Y-127031000D03*
%TD*%
D12*
%TO.C,SW401*%
X161505000Y-120031000D03*
X166505000Y-120031000D03*
X161505000Y-134531000D03*
X164005000Y-134531000D03*
X166505000Y-134531000D03*
D13*
X158055000Y-127031000D03*
X169955000Y-127031000D03*
%TD*%
D12*
%TO.C,SW501*%
X202841000Y-120031000D03*
X207841000Y-120031000D03*
X202841000Y-134531000D03*
X205341000Y-134531000D03*
X207841000Y-134531000D03*
D13*
X199391000Y-127031000D03*
X211291000Y-127031000D03*
%TD*%
D14*
%TO.C,C201*%
X100806000Y-124522000D03*
X100806000Y-122022000D03*
%TD*%
%TO.C,C202*%
X89538000Y-121712000D03*
X89538000Y-119212000D03*
%TD*%
D15*
%TO.C,C204*%
X97106000Y-81472000D03*
X99606000Y-81472000D03*
%TD*%
%TO.C,C203*%
X92106000Y-67472000D03*
X94606000Y-67472000D03*
%TD*%
D16*
%TO.C,U201*%
X72356000Y-70472000D03*
D17*
X105376000Y-62852000D03*
X74896000Y-70472000D03*
X102836000Y-62852000D03*
X77436000Y-70472000D03*
X100296000Y-62852000D03*
X79976000Y-70472000D03*
X97756000Y-62852000D03*
X82516000Y-70472000D03*
X95216000Y-62852000D03*
X85056000Y-70472000D03*
X92676000Y-62852000D03*
X87596000Y-70472000D03*
X90136000Y-62852000D03*
X90136000Y-70472000D03*
X87596000Y-62852000D03*
X92676000Y-70472000D03*
X85056000Y-62852000D03*
X95216000Y-70472000D03*
X82516000Y-62852000D03*
X97756000Y-70472000D03*
X79976000Y-62852000D03*
X100296000Y-70472000D03*
X77436000Y-62852000D03*
X102836000Y-70472000D03*
X74896000Y-62852000D03*
X105376000Y-70472000D03*
X72356000Y-62852000D03*
%TD*%
D10*
%TO.C,SW202*%
X97356000Y-133472000D03*
X97356000Y-128972000D03*
X103856000Y-133472000D03*
X103856000Y-128972000D03*
%TD*%
D16*
%TO.C,U401*%
X155028000Y-70472000D03*
D17*
X188048000Y-62852000D03*
X157568000Y-70472000D03*
X185508000Y-62852000D03*
X160108000Y-70472000D03*
X182968000Y-62852000D03*
X162648000Y-70472000D03*
X180428000Y-62852000D03*
X165188000Y-70472000D03*
X177888000Y-62852000D03*
X167728000Y-70472000D03*
X175348000Y-62852000D03*
X170268000Y-70472000D03*
X172808000Y-62852000D03*
X172808000Y-70472000D03*
X170268000Y-62852000D03*
X175348000Y-70472000D03*
X167728000Y-62852000D03*
X177888000Y-70472000D03*
X165188000Y-62852000D03*
X180428000Y-70472000D03*
X162648000Y-62852000D03*
X182968000Y-70472000D03*
X160108000Y-62852000D03*
X185508000Y-70472000D03*
X157568000Y-62852000D03*
X188048000Y-70472000D03*
X155028000Y-62852000D03*
%TD*%
D14*
%TO.C,C103*%
X161420000Y-43734000D03*
X161420000Y-41234000D03*
%TD*%
%TO.C,C102*%
X148720000Y-43480000D03*
X148720000Y-40980000D03*
%TD*%
D18*
%TO.C,A101*%
X198504000Y-53152000D03*
D19*
X201044000Y-53152000D03*
X203584000Y-53152000D03*
X206124000Y-53152000D03*
X208664000Y-53152000D03*
X211204000Y-53152000D03*
X213744000Y-53152000D03*
X216284000Y-53152000D03*
X218824000Y-53152000D03*
X221364000Y-53152000D03*
X223904000Y-53152000D03*
X226444000Y-53152000D03*
X228984000Y-53152000D03*
X231524000Y-53152000D03*
X234064000Y-53152000D03*
X234064000Y-37912000D03*
X231524000Y-37912000D03*
X228984000Y-37912000D03*
X226444000Y-37912000D03*
X223904000Y-37912000D03*
X221364000Y-37912000D03*
X218824000Y-37912000D03*
X216284000Y-37912000D03*
X213744000Y-37912000D03*
X211204000Y-37912000D03*
X208664000Y-37912000D03*
X206124000Y-37912000D03*
X203584000Y-37912000D03*
X201044000Y-37912000D03*
X198504000Y-37912000D03*
%TD*%
D14*
%TO.C,C401*%
X183478000Y-124522000D03*
X183478000Y-122022000D03*
%TD*%
%TO.C,C402*%
X172210000Y-121712000D03*
X172210000Y-119212000D03*
%TD*%
D15*
%TO.C,C403*%
X174778000Y-67472000D03*
X177278000Y-67472000D03*
%TD*%
%TO.C,C404*%
X179778000Y-81472000D03*
X182278000Y-81472000D03*
%TD*%
D14*
%TO.C,C501*%
X224814000Y-124522000D03*
X224814000Y-122022000D03*
%TD*%
%TO.C,C502*%
X213546000Y-121712000D03*
X213546000Y-119212000D03*
%TD*%
D15*
%TO.C,C503*%
X216114000Y-67472000D03*
X218614000Y-67472000D03*
%TD*%
%TO.C,C504*%
X221114000Y-81472000D03*
X223614000Y-81472000D03*
%TD*%
D10*
%TO.C,SW103*%
X116970000Y-52572000D03*
X116970000Y-48072000D03*
X123470000Y-52572000D03*
X123470000Y-48072000D03*
%TD*%
%TO.C,SW402*%
X180028000Y-133472000D03*
X180028000Y-128972000D03*
X186528000Y-133472000D03*
X186528000Y-128972000D03*
%TD*%
%TO.C,SW502*%
X221364000Y-133472000D03*
X221364000Y-128972000D03*
X227864000Y-133472000D03*
X227864000Y-128972000D03*
%TD*%
D16*
%TO.C,U501*%
X196364000Y-70472000D03*
D17*
X229384000Y-62852000D03*
X198904000Y-70472000D03*
X226844000Y-62852000D03*
X201444000Y-70472000D03*
X224304000Y-62852000D03*
X203984000Y-70472000D03*
X221764000Y-62852000D03*
X206524000Y-70472000D03*
X219224000Y-62852000D03*
X209064000Y-70472000D03*
X216684000Y-62852000D03*
X211604000Y-70472000D03*
X214144000Y-62852000D03*
X214144000Y-70472000D03*
X211604000Y-62852000D03*
X216684000Y-70472000D03*
X209064000Y-62852000D03*
X219224000Y-70472000D03*
X206524000Y-62852000D03*
X221764000Y-70472000D03*
X203984000Y-62852000D03*
X224304000Y-70472000D03*
X201444000Y-62852000D03*
X226844000Y-70472000D03*
X198904000Y-62852000D03*
X229384000Y-70472000D03*
X196364000Y-62852000D03*
%TD*%
D20*
%TO.C,RV101*%
X66500000Y-41976000D03*
X66500000Y-44516000D03*
D21*
X66500000Y-47056000D03*
%TD*%
D14*
%TO.C,C301*%
X142142000Y-124522000D03*
X142142000Y-122022000D03*
%TD*%
%TO.C,C302*%
X130874000Y-119212000D03*
X130874000Y-121712000D03*
%TD*%
D15*
%TO.C,C303*%
X133442000Y-67472000D03*
X135942000Y-67472000D03*
%TD*%
%TO.C,C304*%
X140942000Y-81472000D03*
X138442000Y-81472000D03*
%TD*%
D10*
%TO.C,SW302*%
X145192000Y-128972000D03*
X145192000Y-133472000D03*
X138692000Y-128972000D03*
X138692000Y-133472000D03*
%TD*%
D17*
%TO.C,U301*%
X113692000Y-62852000D03*
X146712000Y-70472000D03*
X116232000Y-62852000D03*
X144172000Y-70472000D03*
X118772000Y-62852000D03*
X141632000Y-70472000D03*
X121312000Y-62852000D03*
X139092000Y-70472000D03*
X123852000Y-62852000D03*
X136552000Y-70472000D03*
X126392000Y-62852000D03*
X134012000Y-70472000D03*
X128932000Y-62852000D03*
X131472000Y-70472000D03*
X131472000Y-62852000D03*
X128932000Y-70472000D03*
X134012000Y-62852000D03*
X126392000Y-70472000D03*
X136552000Y-62852000D03*
X123852000Y-70472000D03*
X139092000Y-62852000D03*
X121312000Y-70472000D03*
X141632000Y-62852000D03*
X118772000Y-70472000D03*
X144172000Y-62852000D03*
X116232000Y-70472000D03*
X146712000Y-62852000D03*
D16*
X113692000Y-70472000D03*
%TD*%
D15*
%TO.C,C107*%
X128290000Y-41148000D03*
X130790000Y-41148000D03*
%TD*%
D10*
%TO.C,SW101*%
X104674000Y-48072000D03*
X104674000Y-52572000D03*
X98174000Y-48072000D03*
X98174000Y-52572000D03*
%TD*%
%TO.C,SW102*%
X84458000Y-52572000D03*
X84458000Y-48072000D03*
X90958000Y-52572000D03*
X90958000Y-48072000D03*
%TD*%
D22*
%TO.C,Q201*%
X105679949Y-83850184D03*
X105679949Y-81950184D03*
X107679949Y-82900184D03*
%TD*%
%TO.C,Q301*%
X147015949Y-83850184D03*
X147015949Y-81950184D03*
X149015949Y-82900184D03*
%TD*%
%TO.C,Q401*%
X190351949Y-82900184D03*
X188351949Y-81950184D03*
X188351949Y-83850184D03*
%TD*%
%TO.C,Q501*%
X231687949Y-82900184D03*
X229687949Y-81950184D03*
X229687949Y-83850184D03*
%TD*%
D23*
%TO.C,C101*%
X73970000Y-41402000D03*
D16*
X77470000Y-41402000D03*
%TD*%
D24*
%TO.C,R208*%
X100756000Y-90520184D03*
X97856000Y-90520184D03*
%TD*%
%TO.C,R308*%
X139192000Y-90520184D03*
X142092000Y-90520184D03*
%TD*%
%TO.C,R408*%
X183428000Y-90520184D03*
X180528000Y-90520184D03*
%TD*%
%TO.C,R508*%
X221864000Y-90520184D03*
X224764000Y-90520184D03*
%TD*%
M02*
